<?xml version="1.0" encoding="UTF-8"?>
<svg id="Capa_2" xmlns="http://www.w3.org/2000/svg" viewBox="0 0 122.55 93.96">
  <defs>
    <style>
      .cls-1 {
        fill: #dadff0;
      }

      .cls-2 {
        fill: #9f2630;
      }

      .cls-3 {
        fill: #83a1cc;
      }
    </style>
  </defs>
  <path class="cls-3" d="M92.25,55.98c-1.29-1.29-2.42-2.86-3.04-4.78-1.25-3.85-.97-8.18-4.05-11.26-5.1-5.1-13.36-5.1-18.47,0-5.09,5.1-5.09,13.37,0,18.47,3.08,3.08,7.41,2.8,11.26,4.05,1.92.62,3.49,1.76,4.78,3.04,1.68,1.68,2.73,3.54,3.11,4.97,1.04,3.85.9,7.98,3.98,11.06,5.1,5.1,13.36,5.1,18.47,0,5.09-5.1,5.09-13.37,0-18.47-3.08-3.08-7.22-2.94-11.06-3.98-1.43-.39-3.29-1.43-4.97-3.11Z"/>
  <path class="cls-2" d="M66.55,40.02c1.29-1.29,2.86-2.42,4.78-3.04,3.85-1.25,8.18-.97,11.26-4.05,5.1-5.1,5.1-13.36,0-18.47-5.1-5.09-13.37-5.09-18.47,0-3.08,3.08-2.8,7.41-4.05,11.26-.62,1.92-1.76,3.49-3.04,4.78-1.68,1.68-3.54,2.73-4.97,3.11-3.85,1.04-7.98.9-11.06,3.98-5.1,5.1-5.1,13.36,0,18.47,5.1,5.09,13.37,5.09,18.47,0,3.08-3.08,2.94-7.22,3.98-11.06.39-1.43,1.43-3.29,3.11-4.97Z"/>
  <circle class="cls-3" cx="22.18" cy="20.06" r="13.06"/>
  <circle class="cls-2" cx="101.39" cy="47.07" r="13.06"/>
  <path class="cls-1" d="M40.9,38.34c1.29-1.29,2.86-2.42,4.78-3.04,3.85-1.25,8.18-.97,11.26-4.05,5.1-5.1,5.1-13.36,0-18.47-5.1-5.09-13.37-5.09-18.47,0-3.08,3.08-2.8,7.41-4.05,11.26-.62,1.92-1.76,3.49-3.04,4.78-1.68,1.68-3.54,2.73-4.97,3.11-3.85,1.04-7.98.9-11.06,3.98-5.1,5.1-5.1,13.36,0,18.47,5.1,5.09,13.37,5.09,18.47,0,3.08-3.08,2.94-7.22,3.98-11.06.39-1.43,1.43-3.29,3.11-4.97Z"/>
  <circle class="cls-1" cx="73.82" cy="73.8" r="13.06"/>
</svg>