<?xml version="1.0" encoding="UTF-8"?>
<svg id="Capa_2" xmlns="http://www.w3.org/2000/svg" viewBox="0 0 72.84 102.13">
  <defs>
    <style>
      .cls-1 {
        fill: #dadff0;
      }

      .cls-2 {
        fill: #9f2630;
      }

      .cls-3 {
        fill: #83a1cc;
      }
    </style>
  </defs>
  <path class="cls-2" d="M4.88,3.5h.89c9.29,0,16.83,7.54,16.83,16.83v27.44h-.89c-9.29,0-16.83-7.54-16.83-16.83V3.5h0Z"/>
  <path class="cls-1" d="M28.14,3.5h.89c9.29,0,16.83,7.54,16.83,16.83v27.44h-.89c-9.29,0-16.83-7.54-16.83-16.83V3.5h0Z"/>
  <path class="cls-3" d="M50.98,3.5h.89c9.29,0,16.83,7.54,16.83,16.83v27.44h-.89c-9.29,0-16.83-7.54-16.83-16.83V3.5h0Z"/>
  <path class="cls-3" d="M4.88,54.38h.89c9.29,0,16.83,7.54,16.83,16.83v27.44h-.89c-9.29,0-16.83-7.54-16.83-16.83v-27.44h0Z"/>
  <path class="cls-2" d="M28.14,54.38h.89c9.29,0,16.83,7.54,16.83,16.83v27.44h-.89c-9.29,0-16.83-7.54-16.83-16.83v-27.44h0Z"/>
  <path class="cls-1" d="M50.98,54.38h.89c9.29,0,16.83,7.54,16.83,16.83v27.44h-.89c-9.29,0-16.83-7.54-16.83-16.83v-27.44h0Z"/>
</svg>